<svg width="23" height="23" viewBox="0 0 23 23" fill="none" xmlns="http://www.w3.org/2000/svg">
<path fill-rule="evenodd" clip-rule="evenodd" d="M7.15394 1.0215C8.27806 0.969752 8.63648 0.958252 11.5 0.958252C14.3635 0.958252 14.7219 0.97071 15.8451 1.0215C16.9682 1.07229 17.7349 1.2515 18.4057 1.51121C19.1082 1.77667 19.7455 2.19163 20.2726 2.72829C20.8092 3.25442 21.2232 3.89075 21.4877 4.59417C21.7484 5.265 21.9266 6.03167 21.9784 7.15292C22.0301 8.27896 22.0416 8.63738 22.0416 11.4999C22.0416 14.3634 22.0292 14.7218 21.9784 15.846C21.9276 16.9672 21.7484 17.7339 21.4877 18.4047C21.2232 19.1082 20.8085 19.7456 20.2726 20.2725C19.7455 20.8092 19.1082 21.2232 18.4057 21.4877C17.7349 21.7483 16.9682 21.9266 15.847 21.9783C14.7219 22.0301 14.3635 22.0416 11.5 22.0416C8.63648 22.0416 8.27806 22.0291 7.15394 21.9783C6.03269 21.9275 5.26602 21.7483 4.59519 21.4877C3.8917 21.2231 3.25431 20.8085 2.7274 20.2725C2.19109 19.7461 1.77607 19.109 1.51127 18.4057C1.25156 17.7348 1.07331 16.9682 1.02156 15.8469C0.969813 14.7209 0.958313 14.3625 0.958313 11.4999C0.958313 8.63642 0.970771 8.278 1.02156 7.15483C1.07235 6.03167 1.25156 5.265 1.51127 4.59417C1.77646 3.89083 2.1918 3.25376 2.72835 2.72734C3.25452 2.19115 3.89127 1.77614 4.59423 1.51121C5.26506 1.2515 6.03173 1.07325 7.15298 1.0215H7.15394ZM15.7598 2.919C14.6481 2.86821 14.3146 2.85767 11.5 2.85767C8.68535 2.85767 8.35185 2.86821 7.24019 2.919C6.2119 2.96596 5.65415 3.1375 5.28231 3.28221C4.79069 3.47388 4.43898 3.701 4.07002 4.06996C3.72027 4.41022 3.45111 4.82444 3.28227 5.28225C3.13756 5.65409 2.96602 6.21183 2.91906 7.24013C2.86827 8.35179 2.85773 8.68529 2.85773 11.4999C2.85773 14.3145 2.86827 14.648 2.91906 15.7597C2.96602 16.788 3.13756 17.3458 3.28227 17.7176C3.45094 18.1747 3.72023 18.5897 4.07002 18.9299C4.41023 19.2797 4.82519 19.549 5.28231 19.7176C5.65415 19.8623 6.2119 20.0339 7.24019 20.0808C8.35185 20.1316 8.6844 20.1422 11.5 20.1422C14.3156 20.1422 14.6481 20.1316 15.7598 20.0808C16.7881 20.0339 17.3458 19.8623 17.7176 19.7176C18.2093 19.526 18.561 19.2988 18.9299 18.9299C19.2797 18.5897 19.549 18.1747 19.7177 17.7176C19.8624 17.3458 20.0339 16.788 20.0809 15.7597C20.1317 14.648 20.1422 14.3145 20.1422 11.4999C20.1422 8.68529 20.1317 8.35179 20.0809 7.24013C20.0339 6.21183 19.8624 5.65409 19.7177 5.28225C19.526 4.79063 19.2989 4.43892 18.9299 4.06996C18.5897 3.72024 18.1754 3.45108 17.7176 3.28221C17.3458 3.1375 16.7881 2.96596 15.7598 2.919ZM10.1535 14.7496C10.9055 15.0626 11.7428 15.1049 12.5225 14.8692C13.3021 14.6334 13.9757 14.1343 14.4283 13.4571C14.8808 12.7798 15.0842 11.9665 15.0037 11.156C14.9232 10.3455 14.5638 9.58802 13.9869 9.01304C13.6191 8.6455 13.1744 8.36407 12.6848 8.18902C12.1952 8.01396 11.6729 7.94964 11.1555 8.00067C10.638 8.05171 10.1383 8.21684 9.69237 8.48417C9.24642 8.7515 8.86528 9.11438 8.57639 9.54669C8.28751 9.979 8.09808 10.47 8.02172 10.9843C7.94537 11.4986 7.984 12.0234 8.13483 12.521C8.28566 13.0186 8.54494 13.4766 8.894 13.8619C9.24307 14.2473 9.67323 14.5505 10.1535 14.7496ZM7.66856 7.6685C8.17171 7.16535 8.76904 6.76623 9.42643 6.49393C10.0838 6.22163 10.7884 6.08148 11.5 6.08148C12.2115 6.08148 12.9161 6.22163 13.5735 6.49393C14.2309 6.76623 14.8282 7.16535 15.3314 7.6685C15.8345 8.17165 16.2337 8.76897 16.506 9.42637C16.7783 10.0838 16.9184 10.7884 16.9184 11.4999C16.9184 12.2115 16.7783 12.9161 16.506 13.5735C16.2337 14.2309 15.8345 14.8282 15.3314 15.3313C14.3152 16.3475 12.937 16.9184 11.5 16.9184C10.0629 16.9184 8.68472 16.3475 7.66856 15.3313C6.65241 14.3152 6.08154 12.937 6.08154 11.4999C6.08154 10.0629 6.65241 8.68466 7.66856 7.6685ZM18.1201 6.88842C18.2448 6.7708 18.3446 6.62936 18.4137 6.47248C18.4827 6.31559 18.5196 6.14645 18.5221 5.97506C18.5246 5.80367 18.4927 5.63353 18.4282 5.47469C18.3638 5.31586 18.2681 5.17157 18.1469 5.05037C18.0257 4.92917 17.8815 4.83352 17.7226 4.76908C17.5638 4.70464 17.3936 4.67273 17.2223 4.67523C17.0509 4.67773 16.8817 4.71459 16.7248 4.78363C16.568 4.85267 16.4265 4.95248 16.3089 5.07717C16.0802 5.31965 15.9549 5.64174 15.9598 5.97506C15.9646 6.30838 16.0992 6.62668 16.3349 6.86239C16.5706 7.09811 16.8889 7.23268 17.2223 7.23754C17.5556 7.2424 17.8777 7.11716 18.1201 6.88842Z" fill="#888888"/>
</svg>
