<svg width="222" height="25" viewBox="0 0 222 25" fill="none" xmlns="http://www.w3.org/2000/svg">
<path d="M12.3955 0C9.94391 0 7.54737 0.733111 5.50894 2.10663C3.47051 3.48015 1.88175 5.43238 0.94356 7.71646C0.00537308 10.0005 -0.240102 12.5139 0.238181 14.9386C0.716464 17.3634 1.89702 19.5907 3.63056 21.3388C5.36411 23.087 7.57278 24.2775 9.97727 24.7598C12.3818 25.2421 14.8741 24.9946 17.1391 24.0485C19.404 23.1024 21.34 21.5002 22.702 19.4446C24.064 17.389 24.791 14.9723 24.791 12.5C24.7894 9.1853 23.4829 6.00681 21.1587 3.66296C18.8344 1.31911 15.6825 0.00162526 12.3955 0V0ZM8.89825 3.52674L12.3712 15.1067L15.8441 3.52674L20.3267 18.3697H19.5299C19.2168 16.9311 18.72 15.5395 18.052 14.2296C17.835 13.7988 17.507 13.4348 17.1025 13.1758C16.698 12.9168 16.2318 12.7724 15.7529 12.7576C15.0169 12.7576 14.3661 13.1379 13.5937 14.2542C13.1266 15.0095 12.7198 15.8012 12.3773 16.6217C12.0321 15.8025 11.6254 15.011 11.1608 14.2542C10.3701 13.1379 9.74976 12.7699 9.02598 12.7576C8.5439 12.7725 8.07449 12.9168 7.6661 13.1755C7.25772 13.4343 6.92512 13.7981 6.70258 14.2296C6.03455 15.5395 5.53775 16.9311 5.22461 18.3697H4.41568L8.89825 3.52674V3.52674ZM55.5852 8.02871C54.9316 8.04093 54.2804 8.1107 53.6389 8.23725C51.1634 8.73406 48.0676 10.9544 48.615 13.8494C49.065 16.2721 52.3068 17.5785 55.9622 16.8548C59.3987 16.1924 61.6369 13.5366 61.1747 11.1997C60.7124 8.86286 58.018 8.02871 55.5852 8.02871V8.02871ZM79.5551 8.02871C78.8934 8.03997 78.234 8.10975 77.5844 8.23725C75.1211 8.73406 72.001 10.9544 72.5362 13.8494C73.0045 16.2721 76.2707 17.5785 79.9322 16.8548C83.3564 16.1924 85.5764 13.5366 85.096 11.1997C84.6155 8.86286 81.9758 8.02871 79.5551 8.02871V8.02871ZM105.587 8.02871C104.925 8.04093 104.266 8.1107 103.616 8.23725C101.183 8.73406 98.051 10.9544 98.5923 13.8494C99.0485 16.2721 102.296 17.5785 105.94 16.8548C109.376 16.1924 111.62 13.5366 111.128 11.1997C110.635 8.86286 108.001 8.02871 105.587 8.02871V8.02871ZM142.913 8.07164C140.632 8.07164 139.008 9.0162 138.571 10.6538C138.513 10.8533 138.482 11.0595 138.479 11.2672C138.479 12.5859 139.903 12.8435 141.271 13.0214C142.64 13.1992 143.99 13.2974 143.972 14.107C143.983 14.1945 143.983 14.2832 143.972 14.3707C143.74 15.2539 142.615 15.9347 140.894 15.9347C139.507 15.9347 138.692 15.4379 138.692 14.5854C138.692 14.4655 138.706 14.346 138.735 14.2296V14.156H137.372V14.2051C137.341 14.408 137.327 14.6132 137.33 14.8185C137.33 16.2844 138.498 16.9713 140.59 16.9713C143.059 16.9713 144.847 15.9715 145.285 14.2726C145.343 14.0732 145.374 13.8669 145.377 13.6592C145.377 12.8925 144.878 12.3283 143.832 12.1443L140.87 11.5984C140.085 11.4573 139.866 11.1568 139.86 10.8194C139.851 10.74 139.851 10.6597 139.86 10.5802C140.097 9.68474 141.247 9.0898 142.421 9.0898C143.594 9.0898 144.647 9.35967 144.653 10.2736C144.658 10.3614 144.658 10.4495 144.653 10.5373V10.5802H145.991C146.022 10.4021 146.036 10.2214 146.033 10.0405C146.033 8.50712 144.47 8.07778 142.913 8.07164V8.07164ZM153.429 8.07164C152.093 8.03536 150.784 8.45544 149.714 9.26373C148.644 10.072 147.877 11.2211 147.536 12.5245C147.421 12.9401 147.359 13.3689 147.353 13.8003C147.337 14.2041 147.401 14.607 147.542 14.9853C147.683 15.3635 147.898 15.7093 148.174 16.0022C148.57 16.3518 149.031 16.6176 149.531 16.7841C150.03 16.9506 150.557 17.0142 151.082 16.9713C152.415 17.0148 153.724 16.6012 154.794 15.7981C155.865 14.9949 156.633 13.8496 156.975 12.5491C157.084 12.1223 157.14 11.6834 157.139 11.2426C157.158 10.8407 157.098 10.4389 156.961 10.0608C156.824 9.68279 156.614 9.336 156.343 9.04073C155.945 8.69247 155.483 8.42745 154.983 8.26108C154.482 8.0947 153.954 8.03031 153.429 8.07164V8.07164ZM197.446 8.07164C196.109 8.03315 194.799 8.45239 193.729 9.26101C192.659 10.0696 191.891 11.22 191.553 12.5245C191.443 12.9409 191.388 13.3697 191.388 13.8003C191.369 14.2023 191.43 14.6042 191.567 14.9823C191.703 15.3604 191.914 15.7071 192.185 16.0022C192.582 16.3516 193.044 16.6174 193.545 16.7838C194.045 16.9503 194.573 17.014 195.098 16.9713C196.432 17.0148 197.741 16.6012 198.811 15.7981C199.881 14.9949 200.65 13.8496 200.992 12.5491C201.109 12.1233 201.172 11.6844 201.181 11.2426C201.195 10.8385 201.13 10.4355 200.988 10.0573C200.846 9.67918 200.63 9.33352 200.353 9.04073C199.957 8.69236 199.496 8.42722 198.997 8.26082C198.497 8.09442 197.97 8.03011 197.446 8.07164V8.07164ZM218.855 8.07164C216.575 8.07164 214.951 9.0162 214.513 10.6538C214.454 10.853 214.421 11.0593 214.415 11.2672C214.415 12.5797 215.845 12.8435 217.213 13.0214C218.582 13.1992 219.956 13.2974 219.932 14.107C219.928 14.1963 219.914 14.2848 219.889 14.3707C219.658 15.2539 218.551 15.9347 216.848 15.9347C215.462 15.9347 214.622 15.4379 214.616 14.5854C214.618 14.4653 214.635 14.3458 214.665 14.2296V14.156H213.302V14.2051C213.259 14.4067 213.234 14.6121 213.229 14.8185C213.229 16.2844 214.403 16.9713 216.496 16.9713C218.971 16.9713 220.753 15.9715 221.191 14.2726C221.249 14.0732 221.279 13.8669 221.282 13.6592C221.282 12.8925 220.784 12.3283 219.731 12.1443L216.775 11.5984C215.985 11.4573 215.766 11.1568 215.766 10.8194C215.773 10.7381 215.789 10.6579 215.814 10.5802C216.052 9.68474 217.177 9.0898 218.351 9.0898C219.525 9.0898 220.577 9.35967 220.577 10.2736C220.582 10.3614 220.582 10.4495 220.577 10.5373V10.5802H221.933C221.976 10.4034 222.001 10.2225 222.006 10.0405C222.006 8.50712 220.419 8.07778 218.862 8.07164H218.855ZM160.193 8.28632V8.33539L157.936 16.7934H165.472L165.734 15.7507H159.487L161.482 8.28632H160.193ZM204.185 8.28632L201.929 16.7934H203.218L205.098 9.71541L208.266 16.7934H209.957L212.214 8.31698H210.918V8.36605L209.045 15.4195L205.882 8.28632H204.185ZM168.714 8.28632L167.376 13.3035C167.273 13.673 167.218 14.0544 167.212 14.4382C167.212 16.1065 168.428 16.9468 170.332 16.9468C171.433 17.006 172.521 16.6775 173.408 16.0173C174.296 15.3572 174.928 14.4066 175.198 13.328L176.56 8.28632H175.271L173.932 13.3526C173.772 14.111 173.349 14.7871 172.739 15.2601C172.13 15.7331 171.374 15.9722 170.605 15.9347C169.225 15.9347 168.544 15.3214 168.538 14.2542C168.54 13.9743 168.579 13.6959 168.653 13.4262L170.015 8.31085L168.714 8.28632ZM178.573 8.28632L178.269 9.39647H181.791L179.838 16.7566H181.128L183.08 9.39647H186.602L186.906 8.28632H178.573ZM188.992 8.28632L186.742 16.7934H188.031L190.287 8.34152L188.992 8.28632ZM43.804 8.28632L40.7629 11.8805L39.7106 8.32925H35.52L33.0871 16.6646H35.7146L37.0527 12.0707L38.2692 16.6646H39.96L43.8344 12.3712L42.5875 16.6646H45.9206L48.244 8.28632H43.804ZM62.604 8.28632L61.9289 11.028H65.3836L64.0455 16.6646H67.2812L68.7409 11.0096H72.2808L72.889 8.32925L62.5797 8.28632H62.604ZM126.601 8.28632L120.987 16.6646H123.773L124.734 15.2233V15.1742H128.699V15.2233L129.052 16.6646H132.312L130.463 8.33539L126.601 8.28632ZM87.6322 8.32925L85.2602 16.6646H88.3378L89.0372 14.156L91.5066 14.2051C92.3946 14.1131 92.4432 14.7449 92.4432 14.7449C92.4432 14.7449 92.4067 15.3214 92.352 15.9041C92.3394 16.0849 92.3951 16.2638 92.5079 16.4048C92.6208 16.5459 92.7823 16.6387 92.9602 16.6646H96.2933C96.1845 16.5389 96.1034 16.3913 96.0552 16.2317C96.007 16.0721 95.9928 15.904 96.0135 15.7385C96.1988 15.2564 96.2776 14.7394 96.2446 14.2235C96.1716 13.5304 95.3992 13.3526 95.2836 13.2544C95.1681 13.1563 95.2836 13.0888 95.2836 13.0888C95.2836 13.0888 97.382 12.4755 97.5827 10.4882C97.7834 8.50099 95.5391 8.32925 95.5391 8.32925H87.6322ZM113.573 8.32925L111.432 16.6646H119.789L120.397 14.3707H115.233L116.76 8.32925H113.573ZM153.174 9.06526C154.804 9.06526 155.753 9.98528 155.753 11.4328C155.751 11.785 155.704 12.1355 155.613 12.4755C155.378 13.4394 154.833 14.2973 154.062 14.9146C153.292 15.5319 152.339 15.8735 151.355 15.8857C149.719 15.8857 148.752 14.9902 148.746 13.5427C148.756 13.1895 148.812 12.839 148.91 12.5C149.153 11.5417 149.703 10.6908 150.473 10.0789C151.244 9.46691 152.193 9.12793 153.174 9.11433V9.06526ZM197.185 9.06526C198.821 9.06526 199.788 9.98528 199.794 11.4328C199.783 11.786 199.728 12.1363 199.63 12.4755C199.393 13.4383 198.847 14.2951 198.077 14.9121C197.307 15.529 196.356 15.8714 195.372 15.8857C193.742 15.8857 192.793 14.9902 192.793 13.5427C192.795 13.1905 192.842 12.8399 192.933 12.5C193.176 11.5437 193.723 10.6943 194.491 10.0826C195.26 9.4708 196.206 9.13061 197.185 9.11433V9.06526ZM105.167 10.1325C105.301 10.1233 105.435 10.1233 105.569 10.1325C106.572 10.2122 107.539 10.6416 107.703 11.4082C108.166 13.7083 105.733 14.6774 106.013 14.5363C104.608 15.2662 102.461 15.0209 102.211 13.5611C102.138 12.926 102.263 12.2836 102.57 11.7239C102.876 11.1641 103.348 10.7149 103.92 10.4392C104.321 10.2924 104.741 10.2056 105.167 10.1816V10.1325ZM55.2141 10.1325C55.3315 10.1232 55.4495 10.1232 55.5669 10.1325C56.5644 10.1325 57.574 10.5986 57.7018 11.3592C58.1883 13.6592 55.7494 14.6283 56.0596 14.4872C54.6363 15.2171 52.4711 14.9718 52.2339 13.512C52.1625 12.8742 52.2913 12.2298 52.6023 11.6697C52.9133 11.1096 53.3907 10.6621 53.9673 10.3901C54.3676 10.2372 54.7874 10.1422 55.2141 10.108V10.1325ZM79.1536 10.1325C79.2792 10.123 79.4052 10.123 79.5307 10.1325C80.5161 10.1325 81.5014 10.5986 81.6474 11.3592C82.1461 13.6592 79.7071 14.6283 79.9991 14.4872C78.5819 15.2171 76.3984 14.9718 76.1734 13.512C76.1025 12.8735 76.2322 12.2286 76.5443 11.6684C76.8565 11.1083 77.3352 10.6611 77.9129 10.3901C78.3029 10.2377 78.7125 10.1427 79.1293 10.108L79.1536 10.1325ZM90.2354 10.2245H93.6658C93.748 10.2146 93.8314 10.2237 93.9096 10.251C93.9879 10.2784 94.0589 10.3233 94.1175 10.3823C94.176 10.4414 94.2205 10.513 94.2476 10.5919C94.2748 10.6708 94.2838 10.7549 94.274 10.8378C94.2672 11.0925 94.1722 11.3368 94.0056 11.5284C93.839 11.7199 93.6112 11.8467 93.3616 11.8867H89.8218L90.2172 10.2797L90.2354 10.2245ZM127.702 10.7213L128.267 13.1747H126.06L127.702 10.7213Z" fill="black"/>
</svg>
