<svg width="24" height="25" viewBox="0 0 24 25" fill="none" xmlns="http://www.w3.org/2000/svg">
<path d="M18.9094 18.1344C18.5998 16.7532 18.1146 15.4173 17.4656 14.1594C17.2557 13.7456 16.939 13.3953 16.5484 13.1448C16.1578 12.8943 15.7074 12.7526 15.2437 12.7344C14.5219 12.7344 13.9125 13.1187 13.1625 14.1875C12.7189 14.9072 12.3303 15.6593 12 16.4375C11.6661 15.6533 11.2744 14.895 10.8281 14.1687C10.0687 13.1 9.45937 12.725 8.76562 12.7156C8.30376 12.7408 7.85675 12.8876 7.46987 13.1412C7.08298 13.3947 6.76996 13.746 6.5625 14.1594C5.9135 15.4173 5.4283 16.7532 5.11875 18.1344H4.275L8.61562 3.88437L11.9812 15.0031L15.375 3.88437L19.6875 18.1344H18.9094ZM12 0.5C9.62622 0.500001 7.30578 1.20403 5.33218 2.52302C3.35859 3.84201 1.82053 5.71671 0.912553 7.90997C0.0045778 10.1032 -0.232514 12.5165 0.231269 14.8445C0.695052 17.1726 1.83887 19.3107 3.51804 20.9886C5.19721 22.6664 7.33628 23.8086 9.66467 24.2706C11.9931 24.7325 14.4061 24.4935 16.5987 23.5839C18.7912 22.6742 20.6647 21.1346 21.9822 19.16C23.2996 17.1854 24.0019 14.8644 24 12.4906C23.9975 9.30965 22.7321 6.25981 20.482 4.0114C18.2318 1.76299 15.181 0.499999 12 0.5Z" fill="#888888"/>
</svg>
