<svg width="29" height="29" viewBox="0 0 29 29" fill="none" xmlns="http://www.w3.org/2000/svg">
<path d="M22.8488 21.3082C22.4748 19.6392 21.8885 18.0251 21.1043 16.5051C20.8506 16.005 20.468 15.5818 19.996 15.2791C19.524 14.9764 18.9798 14.8052 18.4195 14.7832C17.5473 14.7832 16.8109 15.2477 15.9047 16.5391C15.3687 17.4087 14.8992 18.3175 14.5 19.2578C14.0965 18.3102 13.6232 17.3939 13.084 16.5164C12.1664 15.225 11.4301 14.7719 10.5918 14.7605C10.0337 14.791 9.49357 14.9684 9.02609 15.2747C8.55861 15.5811 8.18037 16.0055 7.92969 16.5051C7.14547 18.0251 6.55919 19.6392 6.18516 21.3082H5.16563L10.4105 4.08945L14.4773 17.5246L18.5781 4.08945L23.7891 21.3082H22.8488ZM14.5 0C11.6317 8.7534e-07 8.82781 0.850697 6.44306 2.44448C4.0583 4.03826 2.19981 6.30352 1.10267 8.95371C0.00553151 11.6039 -0.280955 14.5199 0.27945 17.333C0.839854 20.146 2.22197 22.7296 4.25096 24.757C6.27996 26.7845 8.86467 28.1646 11.6781 28.7228C14.4916 29.281 17.4074 28.9922 20.0568 27.893C22.7061 26.7938 24.9699 24.9335 26.5618 22.5475C28.1537 20.1615 29.0022 17.357 29 14.4887C28.997 10.645 27.468 6.95977 24.749 4.24294C22.0301 1.52612 18.3437 -1.173e-06 14.5 0Z" fill="white"/>
</svg>
