<svg width="24" height="19" viewBox="0 0 24 19" fill="none" xmlns="http://www.w3.org/2000/svg">
<path d="M23.643 2.43708C22.808 2.80708 21.911 3.05708 20.968 3.17008C21.941 2.58787 22.669 1.67154 23.016 0.592077C22.1019 1.13507 21.1014 1.51727 20.058 1.72208C19.3564 0.972942 18.4271 0.476403 17.4143 0.309551C16.4016 0.142699 15.3621 0.314868 14.4572 0.79933C13.5524 1.28379 12.8328 2.05344 12.4102 2.98878C11.9875 3.92412 11.8855 4.97283 12.12 5.97208C10.2677 5.87907 8.45564 5.39763 6.80144 4.55898C5.14723 3.72034 3.68785 2.54324 2.51801 1.10408C2.11801 1.79408 1.88801 2.59408 1.88801 3.44608C1.88757 4.21307 2.07644 4.96832 2.43789 5.64481C2.79934 6.3213 3.32217 6.89812 3.96001 7.32408C3.22029 7.30054 2.49688 7.10066 1.85001 6.74108V6.80108C1.84994 7.87682 2.22204 8.91945 2.90319 9.75207C3.58434 10.5847 4.53258 11.156 5.58701 11.3691C4.9008 11.5548 4.18135 11.5821 3.48301 11.4491C3.78051 12.3747 4.36001 13.1841 5.14038 13.764C5.92075 14.3439 6.86293 14.6653 7.83501 14.6831C6.18484 15.9785 4.1469 16.6812 2.04901 16.6781C1.67739 16.6782 1.30609 16.6565 0.937012 16.6131C3.06649 17.9823 5.54535 18.7089 8.07701 18.7061C16.647 18.7061 21.332 11.6081 21.332 5.45208C21.332 5.25208 21.327 5.05008 21.318 4.85008C22.2293 4.19105 23.0159 3.37497 23.641 2.44008L23.643 2.43708Z" fill="#888888"/>
</svg>
