<svg width="27" height="19" viewBox="0 0 27 19" fill="none" xmlns="http://www.w3.org/2000/svg">
<path d="M25.4583 3.54917C25.3111 3.024 25.0243 2.54854 24.6285 2.17334C24.2215 1.78659 23.7226 1.50994 23.179 1.3695C21.1445 0.833253 12.9935 0.833253 12.9935 0.833253C9.59544 0.794592 6.19821 0.964634 2.821 1.34242C2.27737 1.49323 1.77944 1.77606 1.3715 2.16575C0.970664 2.55142 0.680331 3.027 0.528664 3.54809C0.164331 5.51081 -0.0126864 7.50371 -2.77156e-06 9.49992C-0.0130028 11.4943 0.163581 13.4866 0.528664 15.4518C0.677081 15.9707 0.966331 16.4441 1.36825 16.8265C1.77016 17.2089 2.27066 17.4852 2.821 17.6314C4.88258 18.1666 12.9935 18.1666 12.9935 18.1666C16.3959 18.2053 19.7974 18.0353 23.179 17.6574C23.7226 17.517 24.2215 17.2403 24.6285 16.8536C25.0293 16.4712 25.3142 15.9956 25.4572 15.4778C25.8311 13.5158 26.0129 11.5221 26 9.52484C26.0281 7.51916 25.8466 5.51603 25.4583 3.54809V3.54917ZM10.4022 13.2093V5.79167L17.1838 9.501L10.4022 13.2093Z" fill="#888888"/>
</svg>
